<svg width="180" height="180" viewBox="0 0 180 180" fill="none" xmlns="http://www.w3.org/2000/svg">
<path d="M115.84 25.418C113.73 23.0625 111.48 20.7773 109.125 18.6328C108.738 18.2813 108.352 17.9648 108 17.6133C111.164 21.9375 114.012 26.5078 115.383 31.7461C116.473 35.9648 116.895 40.3945 116.719 44.7891C118.582 42.3984 120.023 39.832 121.148 36.8437C121.57 35.7539 122.484 35.5078 123.328 35.7539C121.289 32.0977 118.758 28.6523 115.84 25.418ZM128.32 49.3594C127.582 45.6328 126.422 42.1172 124.875 38.7773C123.152 43.3125 120.621 47.1094 117.211 50.5547C116.859 50.9062 116.438 51.1172 116.051 51.1875C115.664 53.4375 115.137 55.6875 114.469 57.832C114.152 58.8164 113.836 59.8008 113.52 60.7852C114.117 60.293 114.715 59.8711 115.312 59.4141C116.789 58.2891 118.406 57.1992 119.742 55.8984C120.234 55.4414 120.832 54.9141 121.113 54.3164C121.324 53.8945 121.359 54.3867 121.078 53.8594C119.883 51.4687 123.82 50.0977 125.016 52.4883C126.668 55.8281 122.766 58.957 120.516 60.7148C118.863 62.0156 117.105 63.2461 115.488 64.6523C114.75 65.2851 113.203 66.7969 113.203 67.2539C113.133 68.8359 111.621 69.6094 110.461 69.3984C110.355 69.6797 110.215 69.9961 110.109 70.2773C109.16 72.6328 108.07 74.9883 106.734 77.168C111.902 75.6914 116.824 71.9297 119.496 67.6055C120.902 65.3555 124.664 67.1836 123.223 69.4687C119.074 76.1133 111.023 81.7031 103.008 81.9844C99.668 85.3594 95.4844 87.4687 91.0898 89.2617C96.9258 91.8281 103.605 91.9336 109.652 89.543C117.246 86.5547 123.68 81.1406 126.984 73.5469C130.324 65.707 129.902 57.5508 128.32 49.3594Z" fill="#3AB37C"/>
<path d="M105.75 36.5273C108.457 38.1797 110.918 40.7461 112.605 43.7344C112.711 39.7969 112.324 35.8242 111.129 32.0977C109.723 27.6328 107.297 23.7305 104.59 20.0039C104.66 20.8477 104.66 21.7266 104.59 22.6055C104.273 26.5781 102.516 30.1641 100.723 33.6445C96.9961 41.0625 90.6328 45.457 84.164 50.2383C78.082 54.7031 71.1562 59.9063 72.7734 68.3789C73.4414 71.9649 76.0781 75.2344 78.4687 77.8711C80.9648 80.6133 83.6718 83.1445 86.2734 85.7461C86.4843 85.957 86.6601 86.2031 86.7656 86.4844C91.6172 84.6914 96.4687 82.6875 100.09 78.9961C99.9844 78.8203 99.9492 78.6094 99.8789 78.3633C98.6484 71.1211 94.0078 64.6523 89.1914 59.2734C87.4336 57.3047 90.1406 54.1406 91.9336 56.1445C96.7851 61.5586 101.215 67.6758 103.254 74.6719C104.66 72.3516 105.75 69.8203 106.699 67.2891C106.805 67.0078 106.91 66.7266 107.016 66.4453C105.469 60.1875 100.406 55.4766 96.7851 50.3438C95.2383 48.1641 98.6836 45.8086 100.23 48.0234C103.254 52.2773 106.805 56.1445 109.125 60.6797C109.617 59.2734 110.074 57.832 110.496 56.3906C110.812 55.3008 111.094 54.2109 111.34 53.0859C110.953 52.7695 110.672 52.3125 110.672 51.6445C110.566 47.3203 107.543 42.5039 103.852 40.2539C101.602 38.8828 103.43 35.1211 105.75 36.5273Z" fill="#3AB37C"/>
<path d="M141.328 102.937C137.918 104.273 135.633 107.156 133.137 109.758C130.957 112.078 128.707 114.328 126.246 116.367C125.402 117.07 124.523 117.738 123.715 118.477C123.574 118.582 123.434 118.723 123.328 118.828C123.328 119.848 122.59 120.973 121.395 121.148C121.465 121.465 121.5 121.816 121.5 122.168C121.781 128.004 117.598 133.312 112.465 136.723C121.359 133.383 126.773 124.98 132.434 117.809C134.859 114.75 137.391 111.762 140.344 109.16C143.016 106.84 146.32 104.414 149.871 103.711C147.305 102.129 144.176 101.812 141.328 102.937ZM129.094 104.766C126.738 106.629 124.488 108.527 121.957 110.109C119.531 111.621 117.07 113.098 114.609 114.574C116.402 114.996 118.055 115.84 119.285 117.07C119.988 116.051 121.043 115.242 121.957 114.469C125.297 111.691 128.391 108.703 131.449 105.469C133.066 103.781 134.754 102.129 136.617 100.793C133.875 101.074 131.133 103.148 129.094 104.766Z" fill="#FCBF95"/>
<path d="M154.723 109.441C153.563 105.891 148.746 108.281 146.672 109.617C133.418 118.02 128.672 135.914 112.852 140.977C110.883 141.609 109.617 139.43 110.32 137.988C108.281 139.078 106.207 139.887 104.238 140.309C95.0977 142.277 85.8164 139.465 78.9609 133.172C76.9922 131.344 79.7344 128.215 81.7031 130.043C88.2422 136.055 98.0156 138.867 106.453 135.211C110.426 133.488 114.469 130.289 116.402 126.316C117.246 124.559 117.914 122.309 116.684 120.516C115.313 118.547 113.063 118.195 110.813 118.617C106.207 119.461 102.305 122.484 97.5938 122.801C92.7422 123.152 88.1016 121.816 83.5664 120.164C74.7422 116.965 65.707 113.273 56.4258 117.211C48.9023 120.375 44.1914 127.582 40.0781 134.262C38.5664 136.688 36.7383 138.973 35.1563 141.398C33.7148 143.613 32.2383 145.863 30.6211 147.973C29.4609 149.484 28.2656 150.996 27.0352 152.438C26.543 153 26.0859 153.563 25.5938 154.125C25.5586 154.195 25.4883 154.231 25.4531 154.301C25.4883 154.547 25.4883 154.793 25.4531 155.039C31.2539 157.641 36.2812 161.754 42.2227 163.969C46.1953 165.445 49.8516 165.023 52.9453 162C55.6523 159.363 57.7266 156.129 60.5039 153.563C64.125 150.258 68.7305 148.816 73.5469 150.082C78.6094 151.383 83.1445 154.195 88.1016 155.813C96.7149 158.625 106.945 161.367 115.418 156.691C122.133 152.965 126.668 146.566 131.449 140.766C134.191 137.461 137.074 134.332 140.168 131.379C143.824 127.898 147.762 124.559 150.855 120.516C153.035 117.703 155.988 113.238 154.723 109.441Z" fill="#FCBF95"/>
<path d="M158.66 108.035C158.027 105.644 156.199 104.273 154.055 103.746C154.09 102.797 154.16 101.637 153.352 101.039C152.437 100.371 151.488 99.7734 150.469 99.2812C148.359 98.2616 145.934 97.9804 143.613 98.1562C143.227 98.1913 142.84 98.2265 142.453 98.2968C134.332 92.8124 126.914 102.059 120.375 106.172C117.141 108.211 113.836 110.144 110.566 112.148C108.914 113.168 105.891 114.434 104.73 116.297C102.832 117.141 100.934 118.019 98.8945 118.441C94.1484 119.426 89.2617 117.879 84.832 116.262C80.1211 114.574 75.4805 112.605 70.5234 111.726C64.2656 110.601 57.6562 111.691 52.1016 114.715C46.793 117.598 42.8555 122.519 39.5156 127.441C35.1211 133.91 31.1133 140.801 26.1562 146.812C24.75 148.535 23.3086 150.187 21.8672 152.086C21.2344 152.93 20.6719 153.879 21.0234 154.969C21.1992 155.531 21.5508 155.918 21.9726 156.129C21.6914 157.008 21.9375 157.992 23.0273 158.484C31.3242 162.035 39.8672 170.754 49.5703 168.644C57.9023 166.816 60.0117 156.129 67.9922 153.949C72.7031 152.648 77.625 156.199 81.7734 157.887C86.8359 159.926 92.1094 161.473 97.4531 162.527C106.031 164.25 114.328 163.09 121.395 157.746C127.617 153.035 132.047 146.355 137.109 140.519C143.437 133.277 151.699 127.687 156.656 119.32C158.66 116.016 159.68 111.832 158.66 108.035ZM141.328 102.937C144.176 101.812 147.305 102.129 149.871 103.711C146.32 104.414 143.016 106.84 140.344 109.16C137.391 111.726 134.859 114.715 132.434 117.809C126.773 124.98 121.359 133.383 112.465 136.723C117.598 133.277 121.781 128.004 121.5 122.168C121.5 121.816 121.43 121.5 121.395 121.148C122.59 120.973 123.328 119.848 123.328 118.828C123.469 118.687 123.609 118.582 123.715 118.476C124.559 117.738 125.402 117.07 126.246 116.367C128.707 114.328 130.957 112.078 133.137 109.758C135.598 107.121 137.883 104.273 141.328 102.937ZM121.922 110.109C124.488 108.527 126.703 106.629 129.059 104.766C131.133 103.148 133.84 101.074 136.582 100.793C134.719 102.094 133.031 103.746 131.414 105.469C128.355 108.703 125.262 111.691 121.922 114.469C121.008 115.242 119.953 116.051 119.25 117.07C118.02 115.84 116.367 114.961 114.574 114.574C117.035 113.098 119.496 111.621 121.922 110.109ZM150.891 120.516C147.797 124.559 143.859 127.898 140.203 131.379C137.109 134.332 134.227 137.461 131.484 140.766C126.703 146.566 122.168 152.965 115.453 156.691C106.98 161.367 96.75 158.625 88.1367 155.812C83.1445 154.195 78.6445 151.383 73.582 150.082C68.7656 148.851 64.1601 150.293 60.5391 153.562C57.7266 156.129 55.6523 159.328 52.9805 162C49.8867 165.023 46.2305 165.445 42.2578 163.969C36.3164 161.754 31.2539 157.641 25.4883 155.039C25.5234 154.793 25.5586 154.547 25.4883 154.301C25.5234 154.23 25.5937 154.195 25.6289 154.125C26.0859 153.562 26.5781 153 27.0703 152.437C28.3008 150.996 29.4609 149.484 30.6562 147.973C32.2734 145.863 33.75 143.648 35.1914 141.398C36.7734 139.008 38.6016 136.723 40.1133 134.262C44.2617 127.582 48.9727 120.41 56.4609 117.211C65.7422 113.309 74.7773 117 83.6016 120.164C88.1016 121.781 92.7773 123.117 97.6289 122.801C102.34 122.484 106.277 119.461 110.848 118.617C113.098 118.195 115.348 118.547 116.719 120.516C117.949 122.309 117.281 124.559 116.437 126.316C114.504 130.289 110.461 133.488 106.488 135.211C98.0508 138.867 88.2773 136.055 81.7383 130.043C79.7344 128.215 76.9922 131.379 78.9961 133.172C85.8515 139.465 95.168 142.277 104.273 140.309C106.242 139.887 108.352 139.078 110.355 137.988C109.652 139.394 110.918 141.609 112.887 140.976C128.707 135.879 133.453 118.019 146.707 109.617C148.816 108.281 153.598 105.891 154.758 109.441C155.988 113.238 153.035 117.703 150.891 120.516ZM133.418 54.2812C132.223 44.4023 128.742 34.8749 122.625 26.9999C119.742 23.3085 116.508 19.8632 113.098 16.6288C111.445 15.0468 109.758 13.5351 107.859 12.2343C106.488 11.2851 104.695 10.1249 102.937 10.7929C102.797 10.8632 102.656 10.9335 102.551 11.0038C101.461 9.14055 98.1562 10.5116 98.8242 12.9023C99.7734 16.2421 100.793 19.6523 100.301 23.1327C99.7383 27.2109 97.418 31.5351 95.1328 34.9101C90.5976 41.6249 83.0039 45.4921 76.8867 50.5546C73.9687 52.9804 71.2617 55.7226 69.6445 59.203C67.9922 62.7538 67.957 66.832 69.0117 70.5585C70.0664 74.3202 72.7383 77.6601 75.3047 80.5077C77.6601 83.1796 80.2617 85.6054 82.793 88.1015C81.5273 89.5077 82.8281 92.2851 85.0078 91.4765C85.3242 91.371 85.6055 91.2656 85.9219 91.1249C93.5508 95.7304 102.551 96.5741 110.988 93.3749C118.758 90.4218 125.367 85.0429 129.445 77.7655C133.418 70.7695 134.402 62.2616 133.418 54.2812ZM109.125 18.6327C111.48 20.7421 113.73 23.0273 115.84 25.4179C118.758 28.6523 121.254 32.0976 123.328 35.789C122.484 35.5429 121.535 35.8241 121.148 36.8788C120.023 39.8671 118.547 42.4335 116.719 44.8241C116.895 40.4296 116.473 35.9999 115.383 31.7812C114.012 26.5077 111.199 21.9374 108 17.6484C108.387 17.9648 108.773 18.2812 109.125 18.6327ZM86.2734 85.746C83.6367 83.1445 80.9297 80.6132 78.4687 77.871C76.0781 75.2343 73.4414 71.9648 72.7734 68.3788C71.1562 59.9062 78.082 54.703 84.164 50.2382C90.668 45.457 96.9961 41.0273 100.723 33.6445C102.48 30.1288 104.273 26.5781 104.59 22.6054C104.66 21.7265 104.66 20.8827 104.59 20.0038C107.332 23.7304 109.723 27.5976 111.129 32.0976C112.289 35.8241 112.711 39.7616 112.605 43.7343C110.918 40.7812 108.457 38.1796 105.75 36.5273C103.43 35.121 101.602 38.8827 103.887 40.2538C107.578 42.4687 110.566 47.3202 110.707 51.6445C110.742 52.3124 110.988 52.8046 111.375 53.0859C111.129 54.2109 110.848 55.3007 110.531 56.3905C110.145 57.832 109.652 59.2382 109.16 60.6796C106.84 56.1445 103.289 52.3124 100.266 48.0234C98.7187 45.8437 95.2383 48.164 96.8203 50.3437C100.441 55.4765 105.504 60.1874 107.051 66.4452C106.945 66.7265 106.84 67.0077 106.734 67.289C105.785 69.8202 104.66 72.3515 103.289 74.6718C101.25 67.6405 96.8203 61.5585 91.9687 56.1445C90.1758 54.1405 87.4336 57.3046 89.2266 59.2734C94.0078 64.6523 98.6836 71.0859 99.9141 78.3632C99.9492 78.5741 100.02 78.7851 100.125 78.996C96.539 82.6874 91.6523 84.6913 86.8008 86.4843C86.6601 86.203 86.4844 85.9921 86.2734 85.746ZM126.914 73.5468C123.645 81.1405 117.176 86.5546 109.582 89.5429C103.535 91.9335 96.8906 91.828 91.0195 89.2616C95.3789 87.4687 99.5625 85.3593 102.937 81.9843C110.953 81.703 119.004 76.1132 123.152 69.4687C124.559 67.1835 120.832 65.3554 119.426 67.6054C116.754 71.9296 111.832 75.6562 106.664 77.1679C108 74.9882 109.09 72.6327 110.039 70.2773C110.145 69.996 110.285 69.6796 110.391 69.3984C111.551 69.6093 113.062 68.8359 113.133 67.2538C113.168 66.7968 114.715 65.2499 115.418 64.6523C117.035 63.2812 118.793 62.0507 120.445 60.7148C122.695 58.957 126.633 55.8281 124.945 52.4882C123.75 50.1327 119.812 51.4687 121.008 53.8593C121.254 54.3866 121.219 53.9296 121.043 54.3163C120.762 54.914 120.164 55.4413 119.672 55.8984C118.336 57.1991 116.719 58.289 115.242 59.414C114.68 59.8359 114.082 60.2929 113.449 60.7851C113.766 59.8007 114.082 58.8163 114.398 57.832C115.066 55.6523 115.594 53.4374 115.98 51.1874C116.367 51.1171 116.789 50.9413 117.141 50.5546C120.551 47.0741 123.082 43.3124 124.805 38.7773C126.352 42.082 127.547 45.5976 128.25 49.3593C129.902 57.5507 130.324 65.707 126.914 73.5468Z" fill="#010101"/>
</svg>
