<svg width="180" height="180" viewBox="0 0 180 180" fill="none" xmlns="http://www.w3.org/2000/svg">
<path d="M86.9562 153.553L131.616 107.208C142.411 96.0101 142.411 77.8517 131.62 66.6521C120.825 55.4543 103.329 55.4507 92.5416 66.6521L86.9562 72.4481L81.3708 66.6521C70.5762 55.4525 53.0802 55.4615 42.2928 66.6521C31.5036 77.8517 31.5036 96.0101 42.2964 107.208L86.9562 153.553Z" fill="#F95555"/>
<path d="M86.9562 156.478L40.8366 108.615C29.3094 96.6599 29.3076 77.2037 40.833 65.2427C46.4364 59.4287 53.8956 56.2265 61.8336 56.2265C69.7698 56.2247 77.229 59.4287 82.8324 65.2427L86.958 69.5231L91.0836 65.2427C96.6816 59.4287 104.135 56.2247 112.07 56.2229C112.072 56.2229 112.075 56.2229 112.077 56.2229C120.015 56.2229 127.474 59.4269 133.081 65.2427C144.607 77.2037 144.603 96.6599 133.078 108.615L86.9562 156.478ZM61.8336 60.2855C55.008 60.2855 48.5874 63.0449 43.7544 68.0615C33.7284 78.4655 33.7302 95.3963 43.758 105.799L86.9562 150.628L130.154 105.799C140.184 95.3963 140.186 78.4655 130.158 68.0615C125.323 63.0449 118.901 60.2819 112.075 60.2819C112.073 60.2819 112.072 60.2819 112.07 60.2819C105.248 60.2837 98.8308 63.0449 94.005 68.0597L86.9562 75.3731L79.911 68.0615C75.078 63.0449 68.6574 60.2837 61.8336 60.2855Z" fill="black"/>
<path d="M115.445 137.835L109.748 135.182C109.748 135.182 99.873 134.084 96.0012 131.65C88.5384 126.956 79.3134 121.156 78.2784 120.506L62.4996 110.583C60.5556 109.361 60.0138 106.727 61.29 104.699C62.559 102.681 65.1546 102.031 67.0878 103.246L70.0578 105.113L59.6718 98.5823C57.7278 97.3601 57.186 94.7267 58.4622 92.6981C59.7312 90.6803 62.3286 90.0305 64.2618 91.2455L69.3864 94.4675L58.5864 87.6761C56.6532 86.4611 56.115 83.8385 57.384 81.8207C58.6584 79.7921 61.2684 79.1387 63.2106 80.3609L68.6016 83.7521L67.7988 83.2463C65.8602 82.0259 65.3202 79.3979 66.5928 77.3765C67.8654 75.3533 70.4682 74.7017 72.4068 75.9203L96.39 89.4329L106.133 95.5601C107.87 96.6527 110.03 94.7267 109.215 92.8151L104.674 84.9491L101.311 82.8035C99.5382 81.6731 98.3916 79.6643 98.5644 77.4989C98.6706 76.1561 99.189 74.9537 100.332 74.3507C102.53 73.1933 112.939 80.4131 112.939 80.4131C112.939 80.4131 122.387 94.0715 123.021 96.4781L125.429 110.25L130.288 114.235L115.445 137.835Z" fill="white"/>
<path d="M116.428 140.531L109.19 137.16C107.188 136.921 98.7786 135.796 94.9212 133.367L61.4214 112.3C60.0084 111.413 59.0436 110.012 58.7016 108.351C58.3686 106.726 58.6782 105.046 59.5728 103.619C59.9976 102.946 60.5286 102.366 61.1406 101.902L58.5936 100.301C55.7064 98.4852 54.8784 94.59 56.745 91.6182C57.1752 90.936 57.7098 90.3618 58.3146 89.9028L57.5082 89.3952C56.0988 88.5096 55.1358 87.111 54.7974 85.4586C54.4644 83.8386 54.774 82.1628 55.6668 80.7408C56.5632 79.3152 57.9438 78.309 59.5548 77.9058C61.0902 77.5242 62.6544 77.7258 64.0044 78.4746C64.1556 77.7258 64.4436 76.986 64.8756 76.2984C65.772 74.8764 67.1508 73.8702 68.7564 73.467C70.398 73.0584 72.0756 73.3176 73.4868 74.205L97.3872 87.6672L107.213 93.843L107.408 93.744L103.163 86.3946L100.219 84.5154C97.7256 82.926 96.3144 80.1756 96.5412 77.3406C96.7176 75.1284 97.7274 73.4292 99.3888 72.558C100.201 72.135 102.676 70.83 114.093 78.75L114.395 78.957L114.606 79.2612C116.87 82.5336 124.312 93.411 124.981 95.9652L127.298 109.159L133.142 113.954L130.568 117.092L123.559 111.343L121.019 96.8274C120.658 95.6286 115.913 88.2972 111.479 81.8748C107.199 78.939 102.544 76.4262 101.108 76.2642C100.748 76.5792 100.625 77.1804 100.588 77.6592C100.481 78.9948 101.176 80.3106 102.402 81.0936L106.184 83.5056L111.082 92.0178C111.807 93.7188 111.335 95.6754 109.912 96.8904C108.502 98.0964 106.598 98.2476 105.053 97.2774L95.3118 91.152L71.4096 77.688C70.8624 77.346 70.2936 77.2632 69.7428 77.4C69.1542 77.5494 68.6448 77.9238 68.31 78.4566C67.6368 79.5294 67.8906 80.9082 68.8788 81.5274L69.6834 82.0332L67.5198 85.4694L67.5108 85.4622L62.1306 82.08C61.6626 81.7866 61.0956 81.702 60.5394 81.8424C59.949 81.9882 59.4396 82.3644 59.103 82.9026C58.7682 83.4336 58.6512 84.0528 58.7718 84.6432C58.887 85.2012 59.2056 85.6692 59.6664 85.9608L70.4664 92.7504L68.3064 96.1866L63.1818 92.9646C62.199 92.3472 60.8508 92.709 60.1794 93.7818C59.5008 94.8582 59.7582 96.2424 60.7518 96.867L71.1378 103.397L68.9778 106.834L66.0096 104.967C65.547 104.674 64.989 104.591 64.4346 104.729C63.8478 104.877 63.342 105.25 63.0072 105.782C62.6706 106.317 62.5536 106.942 62.676 107.537C62.7912 108.103 63.1116 108.574 63.5796 108.868L97.0812 129.935C99.9342 131.731 107.356 132.878 109.973 133.169L110.304 133.207L118.141 136.858L116.428 140.531Z" fill="black"/>
<path d="M67.5252 83.0718L87.84 95.8482L67.5252 83.0718Z" fill="#6CC0F9"/>
<path d="M66.8871 80.2703L64.7266 83.7065L88.4783 98.6407L90.6388 95.2045L66.8871 80.2703Z" fill="black"/>
<path d="M59.6826 88.3638L84.312 103.851L59.6826 88.3638Z" fill="#6CC0F9"/>
<path d="M59.0435 85.571L56.8828 89.0071L84.9476 106.655L87.1083 103.219L59.0435 85.571Z" fill="black"/>
<path d="M61.4322 99.6877L82.5426 112.961L61.4322 99.6877Z" fill="#6CC0F9"/>
<path d="M60.7991 96.8934L58.6381 100.329L83.1816 115.766L85.3426 112.33L60.7991 96.8934Z" fill="black"/>
<path d="M129.353 153.553L113.987 144.182C112.948 143.53 112.291 142.497 112.082 141.379C111.895 140.373 112.072 139.295 112.66 138.359L128.885 111.357L147.827 122.976L129.353 153.553Z" fill="#7C88EB"/>
<path d="M130.03 156.339L112.932 145.912C111.494 145.012 110.511 143.624 110.14 141.995C109.768 140.366 110.054 138.692 110.941 137.277L128.203 108.554L150.619 122.306L148.496 125.762L129.571 114.152L114.401 139.399C114.066 139.932 113.967 140.521 114.097 141.091C114.228 141.662 114.572 142.15 115.07 142.461L132.145 152.874L130.03 156.339Z" fill="black"/>
<path d="M88.9866 60.2153H119.423V66.3029L127.539 60.2153H129.568C132.928 60.2153 135.653 57.4901 135.653 54.1277V33.8381C135.653 30.4757 132.928 27.7505 129.568 27.7505H88.9866C85.6242 27.7505 82.899 30.4757 82.899 33.8381V54.1277C82.899 57.4901 85.6242 60.2153 88.9866 60.2153Z" fill="#9BF2FF"/>
<path d="M117.392 70.3619V62.2457H88.9866C84.51 62.2457 80.8704 58.6061 80.8704 54.1295V33.8381C80.8704 29.3633 84.51 25.7219 88.9866 25.7219H129.568C134.044 25.7219 137.684 29.3615 137.684 33.8381V54.1277C137.684 58.6043 134.044 62.2439 129.568 62.2439H128.214L117.392 70.3619ZM88.9866 29.7809C86.7492 29.7809 84.9294 31.6007 84.9294 33.8381V54.1277C84.9294 56.3651 86.7492 58.1867 88.9866 58.1867H121.451V62.2439L126.862 58.1867H129.568C131.803 58.1867 133.625 56.3651 133.625 54.1277V33.8381C133.625 31.6007 131.803 29.7809 129.568 29.7809H88.9866V29.7809Z" fill="black"/>
<path d="M125.509 41.9544H119.421V37.8972H125.509V41.9544ZM115.364 41.9544H105.219V37.8972H115.364V41.9544ZM101.16 41.9544H93.0438V37.8972H101.16V41.9544Z" fill="black"/>
<path d="M113.333 46.0117H93.0438V50.0689H113.333V46.0117Z" fill="black"/>
<path d="M44.3466 129.204L47.2158 134.451L52.4628 137.32L47.2158 140.19L44.3466 145.436L41.4774 140.19L36.2304 137.32L41.4774 134.451L44.3466 129.204Z" fill="#9BF2FF"/>
<path d="M44.3466 149.665L39.9816 141.685L32.0022 137.32L39.9816 132.955L44.3466 124.976L48.7116 132.955L56.691 137.32L48.7116 141.685L44.3466 149.665ZM40.4586 137.32L42.9732 138.694L44.3466 141.208L45.72 138.694L48.2346 137.32L45.72 135.947L44.3466 133.432L42.9732 135.947L40.4586 137.32Z" fill="black"/>
<path d="M143.77 133.261L146.639 138.51L151.886 141.377L146.639 144.248L143.77 149.494L140.9 144.248L135.653 141.377L140.9 138.51L143.77 133.261Z" fill="#F7D450"/>
<path d="M143.77 153.722L139.405 145.742L131.425 141.377L139.405 137.012L143.77 129.033L148.135 137.012L156.114 141.377L148.135 145.742L143.77 153.722ZM139.883 141.377L142.396 142.751L143.77 145.265L145.143 142.751L147.656 141.377L145.143 140.004L143.77 137.489L142.396 140.004L139.883 141.377Z" fill="black"/>
<path d="M36.2304 37.8953L39.0996 43.1441L44.3466 46.0115L39.0996 48.8825L36.2304 54.1277L33.3612 48.8825L28.1142 46.0115L33.3612 43.1441L36.2304 37.8953Z" fill="#9BF2FF"/>
<path d="M36.2304 58.3577L31.8654 50.3783L23.886 46.0133L31.8654 41.6483L36.2304 33.6689L40.5954 41.6483L48.5748 46.0133L40.5954 50.3783L36.2304 58.3577ZM32.3424 46.0115L34.8552 47.3849L36.2286 49.8995L37.602 47.3849L40.1148 46.0115L37.602 44.6381L36.2286 42.1235L34.8552 44.6381L32.3424 46.0115Z" fill="black"/>
<path d="M66.6666 27.7507L69.5358 32.9977L74.7828 35.8687L69.5358 38.7361L66.6666 43.9831L63.7956 38.7361L58.5504 35.8687L63.7956 32.9977L66.6666 27.7507Z" fill="#F7D450"/>
<path d="M66.6666 48.2131L62.3016 40.2337L54.3222 35.8687L62.3016 31.5019L66.6666 23.5225L71.0316 31.5019L79.011 35.8687L71.0316 40.2337L66.6666 48.2131ZM62.7786 35.8687L65.2932 37.2421L66.6666 39.7567L68.04 37.2421L70.5546 35.8687L68.04 34.4953L66.6666 31.9807L65.2932 34.4953L62.7786 35.8687Z" fill="black"/>
</svg>
