<svg width="126" height="109" viewBox="0 0 126 109" fill="none" xmlns="http://www.w3.org/2000/svg">
<path d="M35.0736 102.2L38.1497 95.626L39.7141 96.3555C40.481 96.7202 40.9644 97.2409 41.1643 97.9199C41.362 98.5944 41.261 99.3656 40.8567 100.231L40.3381 101.33C39.9339 102.202 39.4021 102.774 38.7474 103.044C38.097 103.318 37.3609 103.266 36.5414 102.886L35.0736 102.2ZM38.6419 96.7246L36.2337 101.875L36.8929 102.182C37.4774 102.457 37.9827 102.49 38.4046 102.279C38.8265 102.073 39.1912 101.646 39.5032 100.996L40.0481 99.8358C40.3689 99.1459 40.4722 98.5746 40.3557 98.122C40.2437 97.6716 39.9185 97.32 39.3802 97.0674L38.6419 96.7246Z" fill="#AB8742"/>
<path d="M48.0611 103.552L45.5914 102.831L44.8707 105.31L47.7447 106.145L47.5249 106.892L43.7721 105.802L45.8111 98.8325L49.52 99.9136L49.2915 100.678L46.4615 99.852L45.8111 102.084L48.2808 102.805L48.0611 103.552Z" fill="#AB8742"/>
<path d="M53.1781 107.212L55.9993 107.608L55.8938 108.381L52.1674 107.854L53.1781 100.664L54.0833 100.796L53.1781 107.212Z" fill="#AB8742"/>
<path d="M61.435 108.654L60.5298 108.645L60.6528 101.385L61.5581 101.394L61.435 108.654Z" fill="#AB8742"/>
<path d="M70.989 107.101L70.8572 107.32C70.4639 107.9 69.8289 108.243 68.95 108.349C68.1634 108.436 67.5196 108.25 67.0164 107.786C66.5177 107.325 66.2078 106.617 66.0848 105.668L65.9178 104.253C65.8014 103.247 65.9134 102.469 66.2606 101.924C66.6055 101.375 67.1834 101.052 67.992 100.957C68.6775 100.876 69.2356 101.005 69.6707 101.344C70.1035 101.678 70.3826 102.196 70.5056 102.899L69.6004 103.005C69.5125 102.561 69.3455 102.223 69.0994 101.994C68.8577 101.766 68.5215 101.678 68.0887 101.731C67.5657 101.79 67.2032 102.003 66.9988 102.372C66.7989 102.741 66.7396 103.295 66.8231 104.033L66.9901 105.51C67.0779 106.237 67.2801 106.78 67.5965 107.136C67.9173 107.494 68.3391 107.643 68.8621 107.584C69.3477 107.527 69.7058 107.362 69.9343 107.092L70.0574 106.951L69.864 105.281L68.5457 105.439L68.4578 104.675L70.6814 104.411L70.989 107.101Z" fill="#AB8742"/>
<path d="M80.6911 105.67L79.8035 105.925L78.8718 102.699L76.0682 103.508L76.9998 106.733L76.1209 106.988L74.0995 100.019L74.9784 99.7636L75.8485 102.761L78.6521 101.952L77.782 98.9551L78.6697 98.7002L80.6911 105.67Z" fill="#AB8742"/>
<path d="M86.6081 96.1257L84.8854 96.9431L87.6539 102.788L86.8278 103.183L84.0593 97.3386L82.3367 98.1472L82.0027 97.4265L86.2741 95.405L86.6081 96.1257Z" fill="#AB8742"/>
<path fill-rule="evenodd" clip-rule="evenodd" d="M24.5189 60.789C31.1479 56.2012 40.3806 62.0282 47.5502 58.3655C52.3687 55.9046 58.1825 52.4308 63.7854 52.4725C67.8085 52.5033 71.2955 54.606 74.7386 56.41C76.5205 57.3438 78.3398 58.2073 80.1327 59.1235C81.6027 59.8728 83.0814 60.6044 84.5052 61.4416C85.5247 62.0392 86.5222 62.6764 87.5352 63.2851C88.3811 63.7926 89.2336 64.2958 90.0971 64.777C90.9167 65.2318 95.5001 58.4731 97.6577 60.0793C99.4748 61.4328 99.0837 71.0984 98.1631 72.2365C95.9175 75.0182 91.7934 76.6507 88.8249 78.5469C82.62 82.5085 76.3843 86.0548 69.6652 89.076C66.2639 90.6053 62.8077 92.5147 58.9471 92.0335C56.5939 91.7412 54.3945 89.8099 52.3928 88.6761C48.9366 86.7184 45.3793 84.9079 41.8945 82.9963C37.2342 80.4409 32.519 78.1514 28.2037 75.0248C27.0303 74.1745 24.2838 72.8232 24.5695 70.9687L24.5189 60.789Z" fill="#FECB6A"/>
<path fill-rule="evenodd" clip-rule="evenodd" d="M24.877 57.0079C31.5038 52.4201 40.352 52.1322 47.5215 48.4695C52.34 46.0086 58.1539 42.5326 63.7568 42.5743C67.7821 42.6051 71.2669 44.71 74.7099 46.514C76.4919 47.4478 78.3112 48.3113 80.1041 49.2253C81.574 49.9768 83.0528 50.7085 84.4766 51.5434C85.4961 52.1432 86.4936 52.7782 87.5065 53.3869C88.3547 53.8966 89.205 54.3998 90.0685 54.881C90.6859 55.2237 94.3443 54.0065 96.1152 55.1117C98.6772 56.7091 99.3276 60.8662 98.1345 62.3405C95.8889 65.12 91.7625 66.7547 88.7963 68.6509C82.5913 72.6103 76.3556 76.1588 69.6365 79.18C66.2374 80.7093 62.779 82.6187 58.9185 82.1375C56.5653 81.843 54.3659 79.9139 52.3642 78.7801C48.908 76.8224 45.3507 75.0119 41.8659 73.1003C37.2056 70.5427 32.4904 68.2554 28.175 65.1266C27.0017 64.2763 24.2552 62.925 24.5408 61.0727L24.877 57.0079Z" fill="#D9963B"/>
<path fill-rule="evenodd" clip-rule="evenodd" d="M24.5189 53.1517C31.1479 48.5639 40.3521 48.9397 47.5216 45.2769C52.3401 42.816 58.1539 39.34 63.7569 39.384C67.7822 39.4147 71.2669 41.5175 74.71 43.3214C76.4919 44.2552 78.3112 45.1187 80.1042 46.0349C81.5741 46.7842 83.0528 47.5159 84.4766 48.353C85.4961 48.9506 86.4937 49.5856 87.5088 50.1965C88.3547 50.704 89.205 51.2094 90.0685 51.6884C90.6991 52.0399 94.2872 49.3 96.0977 50.4404C98.6157 52.029 99.3057 57.6978 98.1345 59.1479C95.889 61.9296 91.7648 63.5622 88.7964 65.4583C82.5914 69.4199 76.3557 72.9662 69.6366 75.9874C66.2375 77.5167 62.7791 79.4261 58.9186 78.9449C56.5654 78.6526 54.3659 76.7213 52.3643 75.5875C48.908 73.6298 45.3508 71.8193 41.866 69.9077C37.2057 67.3524 32.4904 65.0629 28.1751 61.9362C27.0018 61.0837 24.2553 59.7346 24.5409 57.8801L24.5189 53.1517Z" fill="white"/>
<path fill-rule="evenodd" clip-rule="evenodd" d="M24.7936 50.9632C28.6233 48.8626 40.3521 44.8483 47.5216 41.1855C52.3401 38.7247 58.154 35.2487 63.7569 35.2904C67.78 35.3212 71.267 37.4261 74.71 39.23C76.492 40.1638 78.3112 41.0273 80.1042 41.9414C81.5741 42.6928 83.0528 43.4245 84.4766 44.2595C85.4962 44.8593 86.4937 45.4943 87.5066 46.1051C88.3525 46.6127 89.2051 47.1158 90.0686 47.597C90.9738 48.1002 95.6385 48.6429 97.8182 50.4468C98.875 51.3213 98.407 53.3647 98.4378 54.1777C98.451 54.4853 98.3587 54.7819 98.1346 55.0566C95.889 57.8361 91.7648 59.4708 88.7964 61.367C82.5914 65.3264 76.3557 68.8749 69.6366 71.8961C66.2353 73.4253 62.7791 75.3347 58.9186 74.8535C56.5654 74.5613 54.366 72.6299 52.3643 71.4962C48.9081 69.5385 45.3508 67.728 41.866 65.8164C37.2057 63.261 32.4904 60.9715 28.1751 57.8427C27.0018 56.9923 24.7255 55.9003 24.5409 53.7888C24.4596 52.8462 23.9608 51.4202 24.7936 50.9632Z" fill="#4C1300"/>
<path fill-rule="evenodd" clip-rule="evenodd" d="M26.0064 50.014C32.6332 45.4262 40.352 42.2094 47.5215 38.5467C52.34 36.0858 58.1539 32.6098 63.7568 32.6537C67.7821 32.6845 71.2669 34.7872 74.7099 36.5911C76.4919 37.525 78.3112 38.3885 80.1041 39.3047C81.574 40.054 83.0528 40.7856 84.4766 41.6206C85.4961 42.2204 86.4936 42.8554 87.5087 43.4662C88.3547 43.9738 89.205 44.477 90.0685 44.9582C91.411 45.7052 98.341 49.0538 98.4399 51.5388C98.4509 51.8464 98.3564 52.1431 98.1345 52.4177C95.8889 55.1972 91.7626 56.8319 88.7963 58.7281C82.5914 62.6897 76.3557 66.236 69.6366 69.2572C66.2353 70.7865 62.779 72.6958 58.9185 72.2147C56.5653 71.9224 54.3659 69.9911 52.3642 68.8573C48.908 66.8996 45.3507 65.0891 41.8659 63.1775C37.2056 60.6221 32.4904 58.3326 28.175 55.206C27.0017 54.3535 24.2552 53.0044 24.5408 51.1499L26.0064 50.014Z" fill="#723523"/>
<path fill-rule="evenodd" clip-rule="evenodd" d="M61.0015 58.9742C58.3187 59.1016 55.5634 59.1829 52.9773 58.181C46.8756 55.8146 41.3847 50.0161 49.576 45.2372C52.3577 43.6156 55.526 43.0422 58.6219 42.7719C63.6601 42.3303 69.6959 42.4094 74.1343 45.4108C75.6965 46.4654 77.195 47.9376 77.6476 49.9832C78.7836 55.1093 72.9478 56.41 69.9881 57.3724C66.0793 58.6424 63.8359 58.8402 61.0015 58.9742Z" fill="#FFA216"/>
<path d="M0.483388 17.6744C0.307611 17.5799 0.180172 17.492 0.105467 17.4107C0.0351555 17.3272 0 17.2261 0 17.1031C0 16.9383 0.0659169 16.712 0.202144 16.4175C0.336174 16.1187 0.573474 15.6507 0.914043 15.0113C1.00633 14.8004 1.19089 14.4313 1.46774 13.9039C2.39277 12.1286 2.85638 11.1596 2.85638 10.9948C2.83881 10.9662 2.83002 10.9201 2.83002 10.8542C2.83002 10.696 2.95746 10.5532 3.21673 10.4235C3.58586 10.0544 3.88908 9.6633 4.13077 9.24583C4.28897 8.89427 4.5021 8.4768 4.77236 7.98902C5.04701 7.49684 5.38758 6.91458 5.79187 6.24003C5.97863 5.90605 6.26647 5.42047 6.65318 4.78108C7.24423 3.72202 8.00667 2.56628 8.93829 1.31826C9.30083 0.82169 9.60185 0.579996 9.84354 0.597574C10.1468 0.597574 10.4873 0.738196 10.8631 1.01944C11.2432 1.30068 11.5046 1.61708 11.6453 1.96864C11.709 2.0807 11.7419 2.32019 11.7419 2.68933C11.7419 3.18809 11.6848 4.02963 11.575 5.21173C11.5442 5.41827 11.5134 5.74566 11.4783 6.19609C11.4299 6.91677 11.3596 7.6858 11.2673 8.49877C11.0916 10.2917 10.9619 11.6957 10.8806 12.7086C10.7971 13.7172 10.7576 14.6598 10.7576 15.5387C10.7576 15.9847 10.7664 16.3121 10.784 16.523V16.69L10.7576 17.2437C10.6631 17.336 10.5203 17.3843 10.3269 17.3843C10.1028 17.3843 9.88749 17.3316 9.67655 17.2261C9.47001 17.1251 9.35136 17.002 9.31621 16.857C9.30303 16.846 9.28105 16.8306 9.2459 16.813C9.21514 16.7955 9.20195 16.723 9.20195 16.5933L9.21953 16.066L9.29863 14.7213L9.41289 10.8278L9.10528 10.8542C8.78228 10.8542 8.06819 10.9201 6.96079 11.0475C5.85779 11.1772 5.17006 11.2805 4.8954 11.3552C4.75478 11.3552 4.579 11.4518 4.36807 11.6452C4.16153 11.8385 3.97697 12.089 3.81437 12.3922C3.76603 12.5504 3.65617 12.779 3.48039 13.0778C3.30462 13.3722 3.21673 13.5436 3.21673 13.5963C3.12225 13.6622 3.03656 13.7457 2.96185 13.8512C2.89154 13.9523 2.8476 14.0182 2.83002 14.0533C2.83002 14.2291 2.66523 14.6774 2.33784 15.398C2.00826 16.1187 1.68746 16.7208 1.37106 17.1998L0.86131 17.9644L0.483388 17.6744ZM5.4491 9.94015C5.54798 9.92257 5.75671 9.88741 6.07311 9.83468C6.39391 9.77755 6.68394 9.7424 6.94321 9.72921C8.09675 9.45456 8.79986 9.31614 9.05254 9.31614C9.1624 9.31614 9.26787 9.34031 9.36894 9.38645C9.41508 9.45236 9.46562 9.49631 9.51835 9.51828C9.57548 9.54245 9.61503 9.55344 9.63261 9.55344C9.66117 9.46115 9.76005 8.59325 9.93143 6.95193C10.1006 5.31281 10.1907 4.21859 10.2039 3.67368L10.283 2.4696C10.1819 2.4696 9.97098 2.65417 9.65019 3.0233C9.33379 3.39244 8.97784 3.87143 8.58673 4.45589C8.19343 5.03596 7.84407 5.6314 7.54086 6.24003C7.38266 6.52787 7.22665 6.79812 7.07505 7.04861C6.92124 7.2947 6.81358 7.41774 6.74986 7.41774C6.6378 7.5298 6.37413 7.96265 5.95886 8.71849C5.54139 9.46994 5.3722 9.87643 5.4491 9.94015Z" fill="#AB8742"/>
<path d="M22.0674 18.2281C21.5686 18.0524 21.1643 17.8502 20.8545 17.6217C20.5425 17.3976 20.2833 17.0329 20.0723 16.5231C19.8196 15.8024 19.6944 14.9543 19.6944 13.9743C19.6944 13.0317 19.7493 12.2297 19.8614 11.5662C19.9712 10.8982 20.1624 10.2215 20.4327 9.53594L20.6524 9.02619C20.9095 8.37142 21.094 7.94076 21.2061 7.73422C21.4741 7.10801 21.9553 6.29944 22.6475 5.30849C23.2561 4.37687 23.7373 3.70013 24.0888 3.27826C24.4404 2.852 24.7788 2.51143 25.1083 2.25875C25.4357 2.00168 26.04 1.56883 26.9189 0.957999C27.288 0.689939 27.712 0.553711 28.1932 0.553711C28.5909 0.553711 28.9623 0.654783 29.3094 0.852533C29.6544 1.05248 29.9159 1.33592 30.0916 1.70505C30.2674 2.01047 30.3553 2.41695 30.3553 2.92671C30.3553 3.6474 30.1927 4.40104 29.8719 5.18545C29.5555 5.97205 29.1468 6.58727 28.6503 7.03111C28.4921 7.17833 28.3383 7.25083 28.1932 7.25083C28.0175 7.25083 27.7846 7.1234 27.4989 6.86412C27.3517 6.59606 27.2704 6.43786 27.2528 6.38952C27.2396 6.33679 27.2726 6.30603 27.3495 6.29285C27.4945 6.11707 27.7099 5.7787 27.9911 5.27334C28.2723 4.77017 28.4591 4.37248 28.5536 4.07805C28.5887 3.98577 28.6195 3.82757 28.6503 3.60345C28.7777 3.04096 28.8436 2.66304 28.8436 2.46969C28.8436 2.27633 28.7865 2.12472 28.6766 2.01266C28.6283 1.96652 28.5646 1.94235 28.4833 1.94235C28.3536 1.94235 28.1273 2.02145 27.8065 2.17965C27.4242 2.34444 26.9386 2.70699 26.3476 3.26947C25.7543 3.82757 25.2182 4.434 24.7392 5.08877C24.0009 6.05115 23.4341 6.84435 23.043 7.47056C22.6497 8.09237 22.3486 8.72517 22.1377 9.36895L21.874 9.99296C21.8916 10.0589 21.8674 10.2193 21.8037 10.4764C21.7378 10.729 21.6675 10.9334 21.5928 11.0916C21.3643 12.0232 21.25 12.946 21.25 13.8601C21.25 14.5456 21.3072 15.1564 21.4258 15.6882C21.5488 16.2155 21.7246 16.5736 21.9531 16.7604C22.0762 16.8725 22.2651 16.9274 22.5244 16.9274C22.8452 16.9274 23.2407 16.8483 23.7109 16.6901C24.1855 16.5319 24.7678 16.3012 25.4599 15.9958C25.8224 15.8507 26.1674 15.6838 26.497 15.4948C26.8244 15.3014 27.0705 15.1235 27.2353 14.9587C27.6505 14.6555 27.9867 14.5017 28.246 14.5017C28.4217 14.4445 28.5404 14.4138 28.6063 14.4138C28.6349 14.4138 28.6525 14.4357 28.659 14.4753C28.67 14.5104 28.6766 14.561 28.6766 14.6247C28.6766 14.8488 28.5558 15.0949 28.3163 15.363C28.0746 15.6266 27.7538 15.8793 27.3495 16.1188C27.0331 16.4352 26.6486 16.6813 26.1982 16.8571C25.6884 17.2262 25.093 17.5536 24.414 17.8414C23.7329 18.1337 23.1133 18.2809 22.5508 18.2809C22.4211 18.2809 22.2607 18.2633 22.0674 18.2281Z" fill="#AB8742"/>
<path d="M31.1197 16.0396C30.99 15.9473 30.9022 15.8616 30.856 15.7847C30.8077 15.7034 30.7857 15.5804 30.7857 15.4156C30.7857 15.275 30.7945 15.1563 30.8121 15.0553C30.8582 14.5103 30.9791 13.8775 31.1724 13.1569L31.2867 12.6823C31.3394 12.278 31.6206 11.4386 32.1304 10.1599C32.6402 8.87668 33.0554 8.00438 33.3784 7.54077C33.5059 7.45947 33.6443 7.41772 33.7915 7.41772C33.9958 7.41772 34.1716 7.49243 34.3188 7.63745C34.4111 7.70336 34.4595 7.82201 34.4595 7.99779C34.4595 8.15599 34.3979 8.39329 34.2749 8.70969C34.1562 9.02169 33.9541 9.48091 33.6685 10.0895C33.6025 10.2126 33.4949 10.4543 33.3433 10.8102C33.1895 11.1618 33.1148 11.3705 33.1148 11.4342C33.1148 11.465 33.1235 11.4782 33.1411 11.4782C33.1697 11.4782 33.1983 11.4672 33.229 11.443C33.2642 11.4211 33.2993 11.3991 33.3345 11.3815C33.5103 11.0783 33.9365 10.6608 34.6177 10.1335C35.2966 9.60615 35.7646 9.27877 36.0239 9.14913C36.1337 9.08541 36.2788 9.02169 36.4545 8.95578C36.6303 8.89206 36.749 8.84592 36.8149 8.81516C37.0719 8.68772 37.3774 8.6218 37.7289 8.6218C37.9508 8.6218 38.1442 8.65696 38.309 8.72727C38.4782 8.79758 38.5946 8.90744 38.6605 9.05246C38.6781 9.16451 38.7221 9.2524 38.7924 9.31612C38.8671 9.38204 38.9198 9.42159 38.9506 9.43917C38.9967 9.43917 39.0297 9.46114 39.0472 9.50069C39.0648 9.53584 39.0736 9.56221 39.0736 9.57979C39.0736 9.69185 39.0077 9.75996 38.8803 9.78193C38.7506 9.8061 38.5199 9.82588 38.1859 9.84345C38.0102 9.86103 37.8256 9.90278 37.6322 9.9665C37.4389 10.0324 37.2455 10.1115 37.0522 10.2038C36.1557 10.7201 35.4878 11.1222 35.0483 11.4079C34.6089 11.6957 34.1628 12.089 33.7124 12.5856C33.5366 12.7789 33.3037 13.1217 33.0181 13.6139C32.906 13.7259 32.7896 14.0182 32.6665 14.4928C32.5479 14.9674 32.4907 15.2618 32.4907 15.3717C32.4732 15.42 32.4402 15.5101 32.3941 15.6441C32.3457 15.7803 32.2732 15.9122 32.1743 16.0396C31.9854 16.2989 31.8272 16.4263 31.6997 16.4263C31.5525 16.4263 31.3592 16.2989 31.1197 16.0396Z" fill="#AB8742"/>
<path d="M43.5351 16.0397C43.1352 16.3913 42.6562 16.5671 42.0938 16.5671C41.6939 16.5671 41.3137 16.4748 40.9512 16.2858C40.5931 16.0925 40.2942 15.8266 40.0547 15.486C39.8438 15.2356 39.69 14.9477 39.5977 14.6247C39.5032 14.3039 39.4571 13.9106 39.4571 13.447C39.4571 13.2888 39.4703 12.9702 39.501 12.489C39.5472 11.898 39.7427 11.2828 40.0899 10.6434C40.4349 9.99958 40.8633 9.42611 41.3731 8.92075C41.8872 8.41759 42.3948 8.06823 42.8935 7.87487C43.144 7.71667 43.3769 7.63757 43.5879 7.63757C43.6977 7.63757 43.8098 7.64636 43.9218 7.66394C44.0317 7.67712 44.1525 7.69031 44.2822 7.70788C44.6337 7.75622 44.8996 7.82214 45.082 7.91003C45.2687 7.99792 45.4269 8.12975 45.5566 8.30553C45.9543 8.70982 46.1542 9.17563 46.1542 9.70296C46.0883 10.0853 45.84 10.5247 45.4072 11.0213C44.9787 11.5201 44.4602 11.9222 43.8515 12.2254C43.5637 12.3198 43.2363 12.366 42.8672 12.366C42.3684 12.366 41.9663 12.2649 41.6631 12.0584C41.5225 12.0056 41.4104 11.9793 41.3291 11.9793C41.1819 11.9793 41.0742 12.076 41.0039 12.2693C40.9336 12.4627 40.8655 12.8186 40.8018 13.3328C40.7842 13.4448 40.7754 13.603 40.7754 13.8074C40.7754 14.6291 41.0479 15.0774 41.5928 15.1521C41.9619 15.2356 42.2256 15.2751 42.3838 15.2751C42.5771 15.2751 42.7925 15.2114 43.0342 15.0818L43.4912 14.8181C43.5835 14.7719 43.6714 14.7082 43.7549 14.6247C43.8361 14.5434 43.9087 14.4731 43.9746 14.4138C44.0031 14.3786 44.0493 14.3259 44.1152 14.2556C44.1789 14.1809 44.2382 14.1304 44.291 14.1062C44.3481 14.0842 44.4008 14.071 44.4492 14.071C44.5129 14.071 44.5832 14.1106 44.6601 14.1853C44.7414 14.2556 44.8095 14.3061 44.8623 14.3347C45.0029 14.3347 45.0314 14.438 44.9501 14.6423C44.8732 14.8423 44.7041 15.073 44.4404 15.3366C44.1767 15.6003 43.8735 15.8354 43.5351 16.0397ZM43.5176 10.951C43.7856 10.8411 44.0625 10.6412 44.3437 10.3533C44.625 10.0611 44.7656 9.82161 44.7656 9.63265C44.7656 9.43929 44.6909 9.2789 44.5459 9.14926C44.3986 9.02182 44.1987 8.9559 43.9482 8.9559C43.7549 8.9559 43.6098 8.97348 43.5176 9.00864C43.289 9.07455 43.021 9.24594 42.7178 9.52718C42.4124 9.80403 42.1487 10.0875 41.9268 10.3797C41.7027 10.6675 41.6148 10.8345 41.6631 10.8807C41.7444 11.0213 42.0586 11.0916 42.6035 11.0916C42.9726 11.0916 43.2759 11.0455 43.5176 10.951Z" fill="#AB8742"/>
<path d="M57.9488 15.8728C57.7247 15.798 57.5116 15.6047 57.3072 15.2927C57.1073 14.9763 57.0084 14.4665 57.0084 13.7634L57.0348 12.656C57.0348 12.4627 57.0216 12.3286 56.9996 12.2517C56.9754 12.1704 56.9315 12.1287 56.8678 12.1287C56.6568 12.1287 56.2108 12.4011 55.5319 12.9461C54.8507 13.491 54.1696 14.1391 53.4841 14.8884C53.4006 14.9719 53.2907 15.0883 53.1501 15.24C53.0138 15.3938 52.8908 15.5036 52.7809 15.5739C52.6689 15.6442 52.5656 15.6794 52.4733 15.6794C52.3261 15.6794 52.1877 15.6245 52.0603 15.5124L51.7966 15.3015C51.6845 15.2026 51.6296 15.0883 51.6296 14.9587L51.6823 14.7478L52.2272 13.157C52.5832 12.344 52.7919 11.8277 52.8513 11.6101C52.915 11.3948 52.9084 11.2937 52.8337 11.3113C52.6865 11.3289 52.4843 11.4058 52.2272 11.5398C51.9746 11.6761 51.8164 11.8079 51.7526 11.9353C51.7175 11.9353 51.612 12.021 51.4362 12.1902C51.2605 12.355 51.1067 12.4781 50.9792 12.5593C50.8386 12.7703 50.487 13.1482 49.9246 13.6931L49.3445 14.238C49.1028 14.4314 48.7688 14.8247 48.3426 15.4157C48.114 15.7036 47.9844 15.8464 47.9558 15.8464C47.4571 15.8464 47.1429 15.6069 47.0154 15.1257C46.9495 15.0158 46.9188 14.8664 46.9188 14.6775C46.9188 14.4204 47.0154 13.8909 47.2088 13.0867C47.3538 12.5418 47.4373 12.2056 47.4549 12.076L47.5691 11.6014C47.6043 11.3904 47.6768 11.1421 47.7889 10.8543C47.8987 10.5687 48.0899 10.1116 48.3601 9.48324C48.5227 9.0394 48.6062 8.70103 48.6062 8.47252C48.6062 8.26818 48.6765 8.10778 48.8172 7.98913C48.9622 7.86609 49.1248 7.80457 49.3005 7.80457C49.5225 7.80457 49.7136 7.89245 49.8718 8.06823C50.0344 8.24401 50.1179 8.47691 50.1179 8.76255C50.1179 9.0394 50.052 9.32065 49.9246 9.60629L49.6609 10.2567C49.5313 10.5093 49.3665 10.9202 49.1687 11.4871C48.9688 12.0562 48.8699 12.3726 48.8699 12.4363C48.8875 12.489 48.9424 12.4802 49.0369 12.4099C49.1292 12.3352 49.2412 12.2408 49.3709 12.1287C49.5159 11.9837 49.6873 11.8387 49.8806 11.698C50.3596 11.2476 50.9309 10.8148 51.5944 10.3973C52.2558 9.98201 52.7656 9.71834 53.1237 9.60629C53.328 9.60629 53.4841 9.63705 53.5895 9.69417C53.695 9.74691 53.8092 9.84139 53.9323 9.97542C54.0597 10.1116 54.1564 10.2105 54.2223 10.2742C54.3673 10.4215 54.442 10.6302 54.442 10.8982C54.442 10.9817 54.4245 11.0872 54.3893 11.2146C54.3234 11.4388 54.2399 11.7112 54.1344 12.032C54.0334 12.355 53.9608 12.5857 53.9147 12.7263C54.0246 12.6341 54.2245 12.4671 54.5123 12.2254C54.798 11.9859 55.0617 11.7596 55.3033 11.5486C56.1053 10.929 56.7381 10.617 57.2017 10.617C57.5401 10.617 57.8301 10.7928 58.0718 11.1443C58.2125 11.285 58.296 11.4322 58.3267 11.5838C58.3619 11.7376 58.3795 11.9419 58.3795 12.199C58.3795 12.4583 58.3795 12.656 58.3795 12.7966C58.397 12.9153 58.4058 13.1087 58.4058 13.3767C58.4234 13.5063 58.4432 13.7546 58.4673 14.1238C58.4893 14.4929 58.5245 14.7016 58.5728 14.7478C58.6541 14.8423 58.9266 14.9301 59.3902 15.0114C59.6758 15.0598 59.8208 15.1872 59.8208 15.3982C59.8208 15.5388 59.7176 15.6838 59.5132 15.8288C59.3023 15.9584 59.043 16.0222 58.7398 16.0222C58.452 16.0222 58.1883 15.9738 57.9488 15.8728Z" fill="#AB8742"/>
<path d="M64.7873 16.0397C64.3874 16.3913 63.9084 16.5671 63.346 16.5671C62.9461 16.5671 62.5659 16.4748 62.2034 16.2858C61.8453 16.0925 61.5464 15.8266 61.3069 15.486C61.096 15.2356 60.9422 14.9477 60.8499 14.6247C60.7554 14.3039 60.7093 13.9106 60.7093 13.447C60.7093 13.2888 60.7225 12.9702 60.7532 12.489C60.7994 11.898 60.9949 11.2828 61.3421 10.6434C61.6871 9.99958 62.1155 9.42611 62.6253 8.92075C63.1394 8.41759 63.647 8.06823 64.1457 7.87487C64.3962 7.71667 64.6291 7.63757 64.8401 7.63757C64.9499 7.63757 65.062 7.64636 65.174 7.66394C65.2839 7.67712 65.4047 7.69031 65.5344 7.70788C65.8859 7.75622 66.1518 7.82214 66.3342 7.91003C66.5209 7.99792 66.6791 8.12975 66.8088 8.30553C67.2065 8.70982 67.4064 9.17563 67.4064 9.70296C67.3405 10.0853 67.0922 10.5247 66.6594 11.0213C66.2309 11.5201 65.7124 11.9222 65.1037 12.2254C64.8159 12.3198 64.4885 12.366 64.1194 12.366C63.6206 12.366 63.2185 12.2649 62.9153 12.0584C62.7747 12.0056 62.6626 11.9793 62.5813 11.9793C62.4341 11.9793 62.3264 12.076 62.2561 12.2693C62.1858 12.4627 62.1177 12.8186 62.054 13.3328C62.0364 13.4448 62.0276 13.603 62.0276 13.8074C62.0276 14.6291 62.3001 15.0774 62.845 15.1521C63.2141 15.2356 63.4778 15.2751 63.636 15.2751C63.8293 15.2751 64.0447 15.2114 64.2864 15.0818L64.7434 14.8181C64.8357 14.7719 64.9236 14.7082 65.007 14.6247C65.0883 14.5434 65.1609 14.4731 65.2268 14.4138C65.2553 14.3786 65.3015 14.3259 65.3674 14.2556C65.4311 14.1809 65.4904 14.1304 65.5432 14.1062C65.6003 14.0842 65.653 14.071 65.7014 14.071C65.7651 14.071 65.8354 14.1106 65.9123 14.1853C65.9936 14.2556 66.0617 14.3061 66.1144 14.3347C66.2551 14.3347 66.2836 14.438 66.2023 14.6423C66.1254 14.8423 65.9562 15.073 65.6926 15.3366C65.4289 15.6003 65.1257 15.8354 64.7873 16.0397ZM64.7697 10.951C65.0378 10.8411 65.3147 10.6412 65.5959 10.3533C65.8771 10.0611 66.0178 9.82161 66.0178 9.63265C66.0178 9.43929 65.9431 9.2789 65.798 9.14926C65.6508 9.02182 65.4509 8.9559 65.2004 8.9559C65.007 8.9559 64.862 8.97348 64.7697 9.00864C64.5412 9.07455 64.2732 9.24594 63.97 9.52718C63.6645 9.80403 63.4009 10.0875 63.179 10.3797C62.9548 10.6675 62.867 10.8345 62.9153 10.8807C62.9966 11.0213 63.3108 11.0916 63.8557 11.0916C64.2248 11.0916 64.5281 11.0455 64.7697 10.951Z" fill="#AB8742"/>
<path d="M77.1815 19.1685C76.764 19.2323 76.4916 19.2652 76.3641 19.2652C76.0411 19.2652 75.6566 19.1993 75.2128 19.0719C75.0019 19.0059 74.8459 18.9334 74.747 18.8521C74.6525 18.7686 74.5448 18.6522 74.4218 18.5006C74.3031 18.3534 74.2153 18.2391 74.1581 18.1578C73.8637 17.7579 73.7187 17.4064 73.7187 17.1032C73.7187 16.8637 73.8329 16.7758 74.0615 16.8395C74.2197 16.9142 74.3954 17.0724 74.5888 17.3141C74.7821 17.5074 74.9887 17.6481 75.2128 17.736C75.4347 17.8238 75.7072 17.8678 76.0302 17.8678C76.14 17.8678 76.3575 17.8524 76.6805 17.8238C77.0607 17.7579 77.5067 17.6393 78.0164 17.4635C78.5306 17.2877 78.9085 17.1032 79.1502 16.9098C79.917 16.3825 80.5433 15.9584 81.031 15.6354C81.5232 15.3146 81.833 15.1147 81.9627 15.0378C81.9912 14.9565 82.1582 14.8598 82.4636 14.7477L83.114 14.1237C83.5293 13.6733 83.8017 13.4008 83.9314 13.3064C83.9489 13.1965 83.9753 13.0822 84.0105 12.9636C84.05 12.8405 84.072 12.7483 84.072 12.6823C84.2653 12.4714 84.551 11.9704 84.9333 11.1794C85.32 10.3885 85.5859 9.70292 85.7331 9.12285C85.8737 8.3736 85.944 7.70784 85.944 7.12778C85.944 6.15661 85.7704 5.33924 85.4255 4.67568C85.0849 4.00773 84.5861 3.39251 83.9314 2.83002C83.5974 2.56196 83.0393 2.26314 82.2615 1.93355C81.4815 1.60617 81.031 1.46555 80.908 1.51169C80.8245 1.52926 80.6092 1.99068 80.2576 2.89154C79.9061 3.7946 79.4249 5.09535 78.8162 6.7938L78.0428 8.9295C77.9769 9.18877 77.9044 9.43046 77.8231 9.65897C77.7462 9.88309 77.6847 10.0808 77.6385 10.2566C77.4276 10.8499 77.3221 11.1838 77.3221 11.2585C77.1464 11.5354 77.0057 11.8913 76.9003 12.3308C76.7992 12.7702 76.6849 13.5217 76.5575 14.5807C76.4103 15.1081 76.3466 15.3498 76.3641 15.3014C76.2982 15.5717 76.2433 15.7936 76.1972 15.9694C76.1488 16.1452 76.1005 16.2243 76.0477 16.2067L75.9599 16.3034C75.9599 16.4044 75.8851 16.4528 75.7401 16.4528C75.6105 16.4528 75.4633 16.4176 75.3007 16.3473C75.1425 16.2726 75.015 16.1869 74.9228 16.0924C74.8568 15.8705 74.8261 15.7101 74.8261 15.609C74.8261 15.4047 74.8898 15.0861 75.0194 14.6511C75.1469 14.1061 75.3578 13.3415 75.6522 12.3572C75.9511 11.3728 76.2015 10.5686 76.4081 9.94022C76.5245 9.67216 76.6849 9.15801 76.8915 8.40216C77.0673 7.81111 77.2628 7.20468 77.4803 6.58287C77.6957 5.95666 77.8517 5.56336 77.9461 5.40516C77.9813 5.28871 78.089 4.96571 78.2713 4.43838C78.4581 3.91105 78.6778 3.32879 78.9305 2.6894L79.1063 1.8984L78.8426 1.77535C78.6954 1.82369 78.5658 1.84566 78.4559 1.84566C78.3724 1.84566 78.2845 1.82369 78.1922 1.77535C78.0274 1.82369 77.8055 1.75558 77.5243 1.57321C77.2474 1.38645 77.0936 1.21286 77.0585 1.05467C77.0277 1.00852 77.0079 0.938213 76.9969 0.843732C76.9903 0.744857 76.9882 0.676743 76.9882 0.641588C77.0233 0.483388 77.3419 0.338372 77.9461 0.202144C78.5548 0.0681139 79.2205 0 79.9412 0C80.2444 0 80.4773 0.0065918 80.6355 0.0175778C80.9278 0.0351555 81.2068 0.0856917 81.4705 0.166989C81.7341 0.243891 82.0549 0.364738 82.4373 0.527333L83.0173 0.738266C83.5315 0.931621 84.0808 1.26999 84.6608 1.74899C85.2453 2.23018 85.7682 2.79486 86.2253 3.44524C86.6823 4.09562 86.9899 4.75478 87.1481 5.42274C87.1942 5.63367 87.2404 5.9237 87.2887 6.29283C87.3414 6.66197 87.3678 6.99155 87.3678 7.27719C87.3678 7.61117 87.3349 7.8199 87.2711 7.9012C87.2228 7.96712 87.2008 8.04841 87.2008 8.14729C87.2008 8.24177 87.2316 8.2945 87.2975 8.30549C87.2623 8.40656 87.203 8.58453 87.1217 8.84161C87.0448 9.09429 86.9569 9.36455 86.8581 9.65019C86.7636 10.6653 86.3153 11.8518 85.5134 13.2097C85.4365 13.2097 85.3727 13.2229 85.32 13.2448C85.2717 13.269 85.2805 13.2888 85.3464 13.3064C85.3464 13.3833 85.2585 13.5349 85.0827 13.7634C85.0344 13.7941 84.9355 13.9106 84.7839 14.1149C84.6301 14.3149 84.5224 14.4379 84.4587 14.4841C84.4411 14.5961 84.3906 14.6862 84.3093 14.7565C84.2324 14.8268 84.1621 14.862 84.0984 14.862C84.0984 14.862 84.0852 14.8686 84.0632 14.8796C84.039 14.8862 84.028 14.9125 84.028 14.9587C83.7402 15.3761 83.2151 15.8881 82.4548 16.4967C81.6924 17.1053 81.0157 17.5382 80.4246 17.7975C80.2664 17.9073 80.0774 18.0106 79.8621 18.1051C79.6446 18.204 79.4952 18.2677 79.4139 18.2984C79.2842 18.4083 78.9591 18.5643 78.4383 18.7642C77.922 18.9686 77.5023 19.1026 77.1815 19.1685Z" fill="#AB8742"/>
<path d="M92.2831 16.0397C91.8832 16.3913 91.4042 16.5671 90.8417 16.5671C90.4418 16.5671 90.0617 16.4748 89.6992 16.2858C89.341 16.0925 89.0422 15.8266 88.8027 15.486C88.5918 15.2356 88.438 14.9477 88.3457 14.6247C88.2512 14.3039 88.2051 13.9106 88.2051 13.447C88.2051 13.2888 88.2183 12.9702 88.249 12.489C88.2952 11.898 88.4907 11.2828 88.8379 10.6434C89.1828 9.99958 89.6113 9.42611 90.1211 8.92075C90.6352 8.41759 91.1428 8.06823 91.6415 7.87487C91.892 7.71667 92.1249 7.63757 92.3358 7.63757C92.4457 7.63757 92.5578 7.64636 92.6698 7.66394C92.7797 7.67712 92.9005 7.69031 93.0302 7.70788C93.3817 7.75622 93.6476 7.82214 93.83 7.91003C94.0167 7.99792 94.1749 8.12975 94.3046 8.30553C94.7023 8.70982 94.9022 9.17563 94.9022 9.70296C94.8363 10.0853 94.588 10.5247 94.1551 11.0213C93.7267 11.5201 93.2081 11.9222 92.5995 12.2254C92.3117 12.3198 91.9843 12.366 91.6152 12.366C91.1164 12.366 90.7143 12.2649 90.4111 12.0584C90.2705 12.0056 90.1584 11.9793 90.0771 11.9793C89.9299 11.9793 89.8222 12.076 89.7519 12.2693C89.6816 12.4627 89.6135 12.8186 89.5498 13.3328C89.5322 13.4448 89.5234 13.603 89.5234 13.8074C89.5234 14.6291 89.7959 15.0774 90.3408 15.1521C90.7099 15.2356 90.9736 15.2751 91.1318 15.2751C91.3251 15.2751 91.5405 15.2114 91.7822 15.0818L92.2392 14.8181C92.3315 14.7719 92.4193 14.7082 92.5028 14.6247C92.5841 14.5434 92.6566 14.4731 92.7226 14.4138C92.7511 14.3786 92.7973 14.3259 92.8632 14.2556C92.9269 14.1809 92.9862 14.1304 93.039 14.1062C93.0961 14.0842 93.1488 14.071 93.1972 14.071C93.2609 14.071 93.3312 14.1106 93.4081 14.1853C93.4894 14.2556 93.5575 14.3061 93.6102 14.3347C93.7509 14.3347 93.7794 14.438 93.6981 14.6423C93.6212 14.8423 93.452 15.073 93.1884 15.3366C92.9247 15.6003 92.6215 15.8354 92.2831 16.0397ZM92.2655 10.951C92.5336 10.8411 92.8104 10.6412 93.0917 10.3533C93.3729 10.0611 93.5136 9.82161 93.5136 9.63265C93.5136 9.43929 93.4389 9.2789 93.2938 9.14926C93.1466 9.02182 92.9467 8.9559 92.6962 8.9559C92.5028 8.9559 92.3578 8.97348 92.2655 9.00864C92.037 9.07455 91.769 9.24594 91.4658 9.52718C91.1603 9.80403 90.8967 10.0875 90.6748 10.3797C90.4506 10.6675 90.3627 10.8345 90.4111 10.8807C90.4924 11.0213 90.8066 11.0916 91.3515 11.0916C91.7206 11.0916 92.0238 11.0455 92.2655 10.951Z" fill="#AB8742"/>
<path d="M96.5808 16.8835C96.5324 16.901 96.4533 16.9098 96.3435 16.9098C96.0842 16.9098 95.8821 16.7824 95.7371 16.5231C95.5964 16.266 95.5261 15.9145 95.5261 15.4684C95.5261 15.0993 95.5723 14.6752 95.6667 14.1941C95.8425 13.7326 95.9304 13.3943 95.9304 13.1833C95.9831 12.8801 96.1457 12.3308 96.4226 11.5398C96.7038 10.7488 96.884 10.272 96.9675 10.1072C97.0312 10.1072 97.0861 10.0589 97.1345 9.95782C97.1806 9.85235 97.2048 9.7359 97.2048 9.60627C97.2048 9.46125 97.2312 9.31184 97.2839 9.15803C97.341 9.00643 97.4025 8.89876 97.4685 8.83284C97.4685 8.7867 97.4882 8.70101 97.53 8.57797C97.5695 8.45053 97.5915 8.35825 97.5915 8.30551C97.5915 8.27695 97.6113 8.21762 97.653 8.12973C97.6926 8.04185 97.7146 7.97593 97.7146 7.92759C97.965 7.43102 98.4111 6.31483 99.0505 4.57903C99.6942 2.83883 100.017 1.87206 100.017 1.6787C100.017 1.42163 100.145 1.29199 100.404 1.29199C100.485 1.21728 100.615 1.17773 100.791 1.17773L101.169 1.55566C101.278 1.66771 101.349 1.78417 101.38 1.90721C101.415 2.02586 101.432 2.20384 101.432 2.44333C101.432 2.68503 101.399 2.89596 101.336 3.07613C101.27 3.25191 101.111 3.61225 100.861 4.15716C100.813 4.26922 100.749 4.40105 100.668 4.55266C100.584 4.70647 100.496 4.89323 100.404 5.11515C100.369 5.19205 100.239 5.47989 100.017 5.97646C99.859 6.29945 99.7799 6.48402 99.7799 6.53016C99.7799 6.5785 99.747 6.67737 99.6833 6.82898C99.6173 6.98279 99.5624 7.14099 99.5163 7.30358C99.3866 7.55626 99.1823 8.00669 98.9011 8.65707C98.6198 9.30744 98.4792 9.66559 98.4792 9.72931C98.4792 9.90509 98.4396 10.0325 98.3649 10.1072C98.3122 10.1072 98.277 10.1468 98.2595 10.2215C98.2463 10.2918 98.2419 10.3423 98.2419 10.3709C98.2419 10.5357 98.1122 10.9598 97.8552 11.6453L97.6442 12.3396C97.3388 13.3833 97.1257 14.1457 97.0027 14.6247C96.884 15.1059 96.8269 15.5124 96.8269 15.8464C96.8269 16.2507 96.8115 16.5099 96.7829 16.6198C96.7588 16.7318 96.6906 16.8197 96.5808 16.8835Z" fill="#AB8742"/>
<path d="M102.511 6.36323C102.399 6.25337 102.302 6.06221 102.221 5.79195C102.144 5.5173 102.146 5.37887 102.23 5.37887C102.357 5.3613 102.505 5.22067 102.669 4.95701C102.839 4.69334 102.915 4.47362 102.898 4.29784C102.898 4.23412 102.92 4.1748 102.968 4.12207C103.021 4.06494 103.078 4.02539 103.144 4.00781C103.267 3.92651 103.377 3.88477 103.478 3.88477C103.746 3.88477 103.996 4.07812 104.225 4.46483C104.317 4.67576 104.366 4.86033 104.366 5.01853C104.366 5.15915 104.324 5.30637 104.243 5.45797C104.166 5.61178 104.023 5.80733 103.812 6.04683C103.542 6.41596 103.287 6.60053 103.047 6.60053C102.883 6.60053 102.705 6.52143 102.511 6.36323ZM100.182 16.1189C99.958 15.8904 99.8481 15.5696 99.8481 15.1521C99.8481 14.9302 99.8877 14.739 99.9712 14.5808C99.9712 14.4995 99.9844 14.4029 100.015 14.2908C100.05 14.1809 100.068 14.1062 100.068 14.0711C100.05 13.9788 100.114 13.7151 100.261 13.2801C100.547 12.6429 100.931 11.5135 101.413 9.89636C101.413 9.81506 101.443 9.74695 101.509 9.69421C101.573 9.63708 101.667 9.59753 101.79 9.57996C101.918 9.55139 102.01 9.53601 102.063 9.53601C102.155 9.53601 102.239 9.57117 102.309 9.64148C102.384 9.71179 102.485 9.84362 102.608 10.037C102.707 10.1315 102.757 10.2743 102.757 10.4676C102.757 10.773 102.652 11.1422 102.441 11.575C102.234 12.0386 102.1 12.4407 102.037 12.7791C101.843 13.2076 101.689 13.6053 101.58 13.9744C101.544 14.0755 101.494 14.2688 101.43 14.5545C101.371 14.8423 101.283 15.073 101.166 15.2488C101.072 15.7014 100.984 16.0134 100.903 16.1892C100.826 16.365 100.738 16.4529 100.639 16.4529C100.527 16.4529 100.375 16.343 100.182 16.1189Z" fill="#AB8742"/>
<path d="M105.376 16.2066C104.655 16.3253 104.123 16.3824 103.785 16.3824C103.561 16.3824 103.385 16.3538 103.258 16.2945C103.128 16.2374 102.985 16.1275 102.827 15.9693C102.697 15.877 102.634 15.7738 102.634 15.6617C102.634 15.4508 102.915 15.0597 103.477 14.484C104.086 13.7282 104.686 13.1107 105.279 12.6295C105.631 12.3615 106.461 11.777 107.775 10.8806C108.254 10.4939 108.604 10.2258 108.821 10.072C109.036 9.92038 109.201 9.80612 109.313 9.72922C108.527 9.64792 107.936 9.62156 107.538 9.65012C107.18 9.65012 106.909 9.64792 106.729 9.64133C106.547 9.63694 106.398 9.61496 106.281 9.57981H105.921C105.763 9.57981 105.51 9.49851 105.165 9.33372C104.824 9.16453 104.646 9.00633 104.629 8.85912C104.657 8.84154 104.717 8.81078 104.805 8.76244C104.892 8.7163 104.963 8.66137 105.015 8.59545C105.062 8.56689 105.123 8.52514 105.2 8.47241C105.281 8.41528 105.345 8.38452 105.393 8.38452C105.446 8.38452 105.486 8.3999 105.516 8.42847C105.598 8.42847 105.773 8.42627 106.044 8.41968C106.318 8.40869 106.637 8.3977 107.002 8.38452C107.933 8.3977 108.614 8.42407 109.05 8.46362C109.482 8.50537 109.801 8.56909 110.008 8.65698C110.218 8.74487 110.443 8.89428 110.684 9.10521C110.889 9.31175 110.992 9.52488 110.992 9.7468C110.992 9.98849 110.88 10.2368 110.658 10.4939C110.64 10.5114 110.59 10.5708 110.508 10.6696C110.432 10.7641 110.37 10.8103 110.324 10.8103L109.164 11.5485C109.006 11.6606 108.764 11.8122 108.443 12.0055C108.026 12.2648 107.786 12.434 107.722 12.5153C107.582 12.5812 107.441 12.6603 107.301 12.7526C107.164 12.8471 107.059 12.935 106.984 13.0163C106.901 13.1107 106.778 13.2338 106.615 13.3854C106.457 13.5392 106.29 13.671 106.114 13.7809C105.925 13.9457 105.692 14.1654 105.411 14.4401C105.13 14.7103 104.947 14.8927 104.866 14.985C104.866 14.9674 105.237 14.9234 105.982 14.8531C106.725 14.7828 107.388 14.763 107.969 14.7916L109.647 14.7477C109.922 14.7301 110.236 14.7213 110.588 14.7213C110.922 14.7213 111.161 14.7543 111.308 14.818C111.449 14.8663 111.576 14.9762 111.695 15.152C111.818 15.3277 111.855 15.4574 111.809 15.5387C111.726 15.5387 111.466 15.5628 111.027 15.609C110.588 15.6573 110.104 15.6881 109.577 15.7057C109.159 15.7408 108.175 15.8529 106.624 16.0396C106.382 16.0924 105.967 16.1495 105.376 16.2066Z" fill="#AB8742"/>
<path d="M114.566 6.36323C114.454 6.25337 114.357 6.06221 114.276 5.79195C114.199 5.5173 114.201 5.37887 114.285 5.37887C114.412 5.3613 114.56 5.22067 114.724 4.95701C114.893 4.69334 114.97 4.47362 114.953 4.29784C114.953 4.23412 114.975 4.1748 115.023 4.12207C115.076 4.06494 115.133 4.02539 115.199 4.00781C115.322 3.92651 115.432 3.88477 115.533 3.88477C115.801 3.88477 116.051 4.07812 116.28 4.46483C116.372 4.67576 116.421 4.86033 116.421 5.01853C116.421 5.15915 116.379 5.30637 116.298 5.45797C116.221 5.61178 116.078 5.80733 115.867 6.04683C115.597 6.41596 115.342 6.60053 115.102 6.60053C114.937 6.60053 114.759 6.52143 114.566 6.36323ZM112.237 16.1189C112.013 15.8904 111.903 15.5696 111.903 15.1521C111.903 14.9302 111.943 14.739 112.026 14.5808C112.026 14.4995 112.039 14.4029 112.07 14.2908C112.105 14.1809 112.123 14.1062 112.123 14.0711C112.105 13.9788 112.169 13.7151 112.316 13.2801C112.602 12.6429 112.986 11.5135 113.467 9.89636C113.467 9.81506 113.498 9.74695 113.564 9.69421C113.628 9.63708 113.722 9.59753 113.845 9.57996C113.973 9.55139 114.065 9.53601 114.118 9.53601C114.21 9.53601 114.294 9.57117 114.364 9.64148C114.439 9.71179 114.54 9.84362 114.663 10.037C114.762 10.1315 114.812 10.2743 114.812 10.4676C114.812 10.773 114.707 11.1422 114.496 11.575C114.289 12.0386 114.155 12.4407 114.092 12.7791C113.898 13.2076 113.744 13.6053 113.634 13.9744C113.599 14.0755 113.549 14.2688 113.485 14.5545C113.426 14.8423 113.338 15.073 113.221 15.2488C113.127 15.7014 113.039 16.0134 112.958 16.1892C112.881 16.365 112.793 16.4529 112.694 16.4529C112.582 16.4529 112.43 16.343 112.237 16.1189Z" fill="#AB8742"/>
<path d="M116.631 16.022C116.583 15.9232 116.508 15.8243 116.403 15.7232C116.302 15.6177 116.253 15.5474 116.253 15.5123C116.253 15.3365 116.211 15.2025 116.13 15.108C116.099 15.0728 116.086 15.0003 116.086 14.8883C116.086 14.6312 116.209 14.194 116.455 13.5787C116.701 12.9635 117.027 12.2956 117.431 11.5749C117.523 11.4826 117.646 11.3156 117.8 11.0739C117.952 10.8344 118.05 10.696 118.099 10.6608C118.099 10.5971 118.121 10.5378 118.169 10.485C118.222 10.4279 118.277 10.3972 118.336 10.3972V10.2565C118.336 10.1115 118.6 9.76216 119.127 9.21066C119.659 8.66136 120.094 8.27904 120.428 8.06811C120.832 7.80005 121.241 7.66382 121.658 7.66382C121.944 7.66382 122.19 7.74292 122.397 7.90112C122.478 7.9956 122.847 8.33836 123.504 8.92942L124.392 9.7292L123.961 10.9245C123.814 11.3595 123.741 11.7506 123.741 12.1022C123.741 12.713 123.919 13.2975 124.277 13.86C124.352 14.0358 124.51 14.2027 124.752 14.3609C124.992 14.5191 125.231 14.6158 125.473 14.651C125.824 14.7169 126 14.8927 126 15.1783C126 15.5013 125.855 15.6947 125.569 15.7584C125.503 15.7716 125.407 15.7759 125.279 15.7759C124.335 15.7759 123.522 15.1124 122.836 13.7809C122.77 13.6886 122.687 13.515 122.581 13.2623C122.476 13.0053 122.414 12.8273 122.397 12.7262C122.302 12.8558 122.181 13.0075 122.036 13.1832C121.896 13.359 121.759 13.5128 121.632 13.6403C119.885 15.387 118.508 16.2593 117.501 16.2593C117.178 16.2593 116.888 16.1802 116.631 16.022ZM117.501 14.6773C117.501 14.7542 117.582 14.7784 117.747 14.7477C117.916 14.7125 118.125 14.6334 118.371 14.5104C118.622 14.3829 118.877 14.2115 119.136 14.0006C120.511 12.8185 121.505 11.7836 122.115 10.8981L122.643 10.0368C122.478 9.70284 122.309 9.46114 122.133 9.30734C121.957 9.15573 121.799 9.07883 121.658 9.07883C121.318 9.07883 120.788 9.50069 120.068 10.3444C119.347 11.1838 118.69 12.1703 118.099 13.3063C117.958 13.5765 117.829 13.8512 117.712 14.1324C117.6 14.4137 117.53 14.596 117.501 14.6773Z" fill="#AB8742"/>
</svg>
