<svg width="180" height="180" viewBox="0 0 180 180" fill="none" xmlns="http://www.w3.org/2000/svg">
<path d="M75.9846 102.921C58.4114 102.921 43.9559 89.576 42.1967 72.4683C42.0778 73.6242 42.0167 74.797 42.0167 75.9839C42.0167 94.744 57.2246 109.952 75.9846 109.952C94.7447 109.952 109.953 94.744 109.953 75.9839C109.953 74.797 109.891 73.6242 109.773 72.4683C108.013 89.5767 93.5571 102.921 75.9846 102.921Z" fill="#EBE7F2"/>
<path d="M139.759 141.868L119.209 121.319C116.845 118.954 116.651 115.247 118.617 112.655C118.377 112.836 118.143 113.03 117.925 113.249L113.248 117.925C110.666 120.509 110.666 124.697 113.248 127.279L133.798 147.828C136.381 150.411 140.569 150.411 143.152 147.828L147.828 143.151C148.046 142.933 148.238 142.701 148.42 142.462C145.828 144.425 142.123 144.232 139.759 141.868Z" fill="#EBE7F2"/>
<path d="M149.071 132.554L128.521 112.004C126.94 110.423 124.838 109.552 122.601 109.552C120.364 109.552 118.262 110.424 116.681 112.005L112.005 116.681C108.741 119.946 108.741 125.257 112.006 128.521L132.555 149.07C134.188 150.702 136.332 151.518 138.476 151.518C140.62 151.518 142.765 150.701 144.396 149.07L149.072 144.393C152.336 141.13 152.335 135.818 149.071 132.554ZM146.586 141.908L141.91 146.585C140.017 148.478 136.936 148.479 135.041 146.585L114.491 126.036C112.598 124.142 112.598 121.061 114.491 119.167L119.167 114.491C120.085 113.573 121.304 113.068 122.601 113.068C123.899 113.068 125.118 113.573 126.036 114.49L146.585 135.039C147.503 135.956 148.008 137.176 148.008 138.473C148.008 139.771 147.503 140.991 146.586 141.908Z" fill="#846F75"/>
<path d="M104.562 111.43C103.945 110.813 102.968 110.741 102.268 111.265C94.6308 116.964 85.5415 119.977 75.9839 119.977C51.7268 119.977 31.9922 100.242 31.9922 75.9846C31.9922 51.7275 51.7268 31.9929 75.9839 31.9929C100.241 31.9929 119.976 51.7275 119.976 75.9846C119.976 85.5429 116.963 94.6315 111.263 102.269C110.741 102.968 110.812 103.946 111.429 104.563L114.419 107.554C115.106 108.24 116.218 108.24 116.904 107.554C117.591 106.867 117.591 105.754 116.904 105.067L114.973 103.135C120.551 95.1497 123.491 85.7946 123.491 75.9839C123.491 49.7883 102.178 28.4766 75.9832 28.4766C49.7883 28.4766 28.4766 49.7883 28.4766 75.9839C28.4766 102.18 49.7883 123.492 75.9839 123.492C85.7939 123.492 95.1483 120.551 103.134 114.974L105.067 116.906C105.754 117.593 106.866 117.593 107.552 116.906C108.239 116.22 108.239 115.107 107.552 114.42L104.562 111.43Z" fill="#846F75"/>
<path d="M75.9839 40.2588C56.2844 40.2588 40.2581 56.2851 40.2581 75.9846C40.2581 95.684 56.2844 111.71 75.9839 111.71C95.6834 111.71 111.71 95.684 111.71 75.9846C111.71 56.2851 95.6834 40.2588 75.9839 40.2588ZM75.9839 108.194C58.223 108.194 43.7737 93.7448 43.7737 75.9839C43.7737 58.2236 58.223 43.7737 75.9839 43.7737C93.7448 43.7737 108.195 58.2229 108.195 75.9839C108.195 93.7448 93.7448 108.194 75.9839 108.194Z" fill="#846F75"/>
<path d="M100.175 75.5318C98.1485 73.1285 88.0889 61.9685 75.9846 61.9685C63.8803 61.9685 53.82 73.1278 51.7943 75.5318C51.5728 75.7948 51.5728 76.1744 51.7943 76.4367C53.8207 78.84 63.8803 90 75.9846 90C88.0889 90 98.1485 78.8407 100.175 76.4367C100.396 76.1737 100.396 75.7948 100.175 75.5318ZM75.9846 84.1992C71.4473 84.1992 67.77 80.5212 67.77 75.9846C67.77 71.4473 71.448 67.77 75.9846 67.77C80.5219 67.77 84.1992 71.448 84.1992 75.9846C84.1992 80.5212 80.5212 84.1992 75.9846 84.1992Z" fill="#6CC0F9"/>
</svg>
